HIERARCHY
ROOT Hips
{
  OFFSET 54.9527 91.3929 37.2643
  CHANNELS 6 Xposition Yposition Zposition Zrotation Xrotation Yrotation
  JOINT spine
  {
    OFFSET 0 6.84637 0.3937
    CHANNELS 3 Zrotation Xrotation Yrotation
    JOINT spine1
    {
      OFFSET 0 9.49621 0
      CHANNELS 3 Zrotation Xrotation Yrotation
      JOINT spine2
      {
        OFFSET 0 9.09909 0
        CHANNELS 3 Zrotation Xrotation Yrotation
        JOINT Neck
        {
          OFFSET 0 23.3612 1.11378
          CHANNELS 3 Zrotation Xrotation Yrotation
          JOINT Head
          {
            OFFSET 0 7.05802 0
            CHANNELS 3 Zrotation Xrotation Yrotation
            End Site
            {
              OFFSET 0 17.0844 -5.63419
            }
          }
        }
        JOINT RightShoulder
        {
          OFFSET -3.83136 9.82631 -0.533491
          CHANNELS 3 Zrotation Xrotation Yrotation
          JOINT RightArm
          {
            OFFSET 0 12.8881 0
            CHANNELS 3 Zrotation Xrotation Yrotation
            JOINT RightArmRoll
            {
              OFFSET 0 6.50617 0
              CHANNELS 3 Zrotation Xrotation Yrotation
              JOINT RightForeArm
              {
                OFFSET 0 18.9501 0
                CHANNELS 3 Zrotation Xrotation Yrotation
                JOINT RightForeArmRoll
                {
                  OFFSET 0 7.30093 0
                  CHANNELS 3 Zrotation Xrotation Yrotation
                  JOINT RightHand
                  {
                    OFFSET 0 14.6514 0
                    CHANNELS 3 Zrotation Xrotation Yrotation
                    End Site
                    {
                      OFFSET 0 0 0
                    }
                  }
                }
              }
            }
          }
        }
        JOINT LeftShoulder
        {
          OFFSET 3.83136 9.82631 -0.533491
          CHANNELS 3 Zrotation Xrotation Yrotation
          JOINT LeftArm
          {
            OFFSET 0 12.8881 0
            CHANNELS 3 Zrotation Xrotation Yrotation
            JOINT LeftArmRoll
            {
              OFFSET 0 6.50617 0
              CHANNELS 3 Zrotation Xrotation Yrotation
              JOINT LeftForeArm
              {
                OFFSET 0 18.9501 0
                CHANNELS 3 Zrotation Xrotation Yrotation
                JOINT LeftForeArmRoll
                {
                  OFFSET 0 7.30092 0
                  CHANNELS 3 Zrotation Xrotation Yrotation
                  JOINT LeftHand
                  {
                    OFFSET 0 14.6514 0
                    CHANNELS 3 Zrotation Xrotation Yrotation
                    End Site
                    {
                      OFFSET 0 0 0
                    }
                  }
                }
              }
            }
          }
        }
      }
    }
  }
  JOINT RightUpLeg
  {
    OFFSET -6.06837 -1.11278 -0.933477
    CHANNELS 3 Zrotation Xrotation Yrotation
    JOINT RightUpLegRoll
    {
      OFFSET 0 17.1796 0
      CHANNELS 3 Zrotation Xrotation Yrotation
      JOINT RightLeg
      {
        OFFSET 0 -21.2743 0
        CHANNELS 3 Zrotation Xrotation Yrotation
        JOINT RightLegRoll
        {
          OFFSET 0 21.3439 0
          CHANNELS 3 Zrotation Xrotation Yrotation
          JOINT RightFoot
          {
            OFFSET 0 17.7652 0
            CHANNELS 3 Zrotation Xrotation Yrotation
            JOINT RightToeBase
            {
              OFFSET 0 14.8508 0
              CHANNELS 3 Zrotation Xrotation Yrotation
              End Site
              {
                OFFSET 0.0062947 7.19213 -0.829005
              }
            }
          }
        }
      }
    }
  }
  JOINT LeftUpLeg
  {
    OFFSET 6.06837 -1.11278 -0.933477
    CHANNELS 3 Zrotation Xrotation Yrotation
    JOINT LeftUpLegRoll
    {
      OFFSET 0 17.1797 0
      CHANNELS 3 Zrotation Xrotation Yrotation
      JOINT LeftLeg
      {
        OFFSET 0 21.2742 0
        CHANNELS 3 Zrotation Xrotation Yrotation
        JOINT LeftLegRoll
        {
          OFFSET 0 21.5412 0
          CHANNELS 3 Zrotation Xrotation Yrotation
          JOINT LeftFoot
          {
            OFFSET 0 17.5679 0
            CHANNELS 3 Zrotation Xrotation Yrotation
            JOINT LeftToeBase
            {
              OFFSET 0 14.8508 0
              CHANNELS 3 Zrotation Xrotation Yrotation
              End Site
              {
                OFFSET -0.0282102 7.19214 -0.829005
              }
            }
          }
        }
      }
    }
  }
}
MOTION
Frames: 5
Frame Time: 0.00208333
52.346 58.8739 -4.85139 -4.04381 -1.92958 -1.7677 0.678577 -0.7845 0.412924 1.36035 2.44495 0.752146 1.35286 4.0897 0.730205 3.47465 12.111 -0.609427 -2.77658 -3.99817 0.0657949 74.1929 4.0068 0.0374461 100.79 23.7897 -11.6732 -1.36831e-005 -6.54527e-007 -1.1242e-005 18.7874 38.3239 -7.57248 -6.01259e-006 -7.92504e-006 -3.0104 8.0289 -4.95086 0.697417 -60.7356 -3.29849 2.17218 -116.04 28.852 9.24466 -5.62426e-007 1.25896e-006 2.36734e-006 -22.3257 27.5967 6.50267 2.03607e-006 4.61283e-007 3 -8.02934 -4.95156 -0.69778 167.324 78.1908 16.8572 180 3.05101e-005 178.734 174.034 72.9028 -178.247 -4.37229e-006 4.08516e-006 1.60103 -17.7302 65.6921 17.7662 8.13649 25.2326 -3.48773 -112.314 70.9531 -66.8958 4.54188e-006 -4.6773e-006 -0.867916 10.6444 -80.0828 12.8492 2.95271e-007 -4.48079e-006 -1.91447 18.0877 66.2109 -18.1234 -8.13649 25.2327 3.48774 
52.344 58.873 -4.85328 -4.04754 -1.91753 -1.76595 0.679959 -0.785867 0.412958 1.36392 2.44233 0.751151 1.35643 4.08707 0.729123 3.41912 12.1802 -0.598293 -2.73452 -4.05813 0.0662452 74.2141 4.04871 0.0527859 100.765 23.7084 -11.5518 -1.36831e-005 -6.54527e-007 -1.1242e-005 18.7328 38.3655 -7.56814 -6.01259e-006 -7.92504e-006 -3.0104 8.0289 -4.95086 0.697417 -60.7894 -3.27282 2.16147 -115.99 28.8054 9.14705 -5.62426e-007 1.25896e-006 2.36734e-006 -22.3014 27.5412 6.48445 2.03607e-006 4.61283e-007 3 -8.02934 -4.95156 -0.69778 167.325 78.2008 16.859 180 3.05101e-005 178.734 174.027 72.9 -178.242 -4.37229e-006 4.08516e-006 1.60101 -17.7311 65.6934 17.7672 8.13649 25.2326 -3.48773 -112.274 70.9617 -66.9297 4.54188e-006 -4.6773e-006 -0.867906 10.6554 -80.0824 12.8584 2.95271e-007 -4.4808e-006 -1.91468 18.0875 66.2106 -18.123 -8.13649 25.2327 3.48774 
52.3327 58.8798 -4.85652 -4.05136 -1.90518 -1.76429 0.681371 -0.787355 0.412991 1.36761 2.43949 0.750075 1.36012 4.08423 0.727957 3.36214 12.2501 -0.586902 -2.69112 -4.11857 0.0667112 74.2366 4.09257 0.0687884 100.739 23.624 -11.4273 -1.36831e-005 -6.54527e-007 -1.1242e-005 18.6771 38.4074 -7.56362 -6.01259e-006 -7.92504e-006 -3.0104 8.0289 -4.95086 0.697417 -60.8451 -3.24628 2.15041 -115.938 28.7578 9.04717 -5.62426e-007 1.25896e-006 2.36734e-006 -22.2774 27.483 6.46559 2.03607e-006 4.61283e-007 3 -8.02934 -4.95156 -0.69778 167.326 78.2111 16.8604 180 3.05101e-005 178.734 174.02 72.8971 -178.237 -4.37229e-006 4.08516e-006 1.60101 -17.7321 65.6948 17.7682 8.13649 25.2326 -3.48773 -112.234 70.9703 -66.9647 4.54188e-006 -4.6773e-006 -0.867901 10.6666 -80.0819 12.8677 2.95271e-007 -4.48079e-006 -1.91489 18.0873 66.2103 -18.1226 -8.13649 25.2327 3.48774 
52.3376 58.8825 -4.86031 -4.05525 -1.89263 -1.76269 0.682804 -0.788927 0.413025 1.37137 2.43649 0.748943 1.36388 4.08124 0.726733 3.30414 12.3206 -0.575329 -2.6468 -4.17934 0.0671883 74.26 4.13781 0.0852555 100.712 23.5374 -11.3005 -1.36831e-005 -6.54527e-007 -1.1242e-005 18.6207 38.4496 -7.55897 -6.01259e-006 -7.92504e-006 -3.0104 8.0289 -4.95086 0.697417 -60.9022 -3.21912 2.1391 -115.884 28.7094 8.94573 -5.62426e-007 1.25896e-006 2.36734e-006 -22.2536 27.4227 6.4463 2.03607e-006 4.61283e-007 3 -8.02934 -4.95156 -0.69778 167.328 78.2215 16.8616 180 3.05101e-005 178.734 174.014 72.8942 -178.232 -4.37229e-006 4.08516e-006 1.60101 -17.7332 65.6963 17.7694 8.13649 25.2326 -3.48773 -112.193 70.9789 -67.0004 4.54188e-006 -4.6773e-006 -0.867899 10.6777 -80.0815 12.8769 2.95271e-007 -4.48079e-006 -1.91511 18.087 66.21 -18.1222 -8.13649 25.2327 3.48774 
52.3249 58.8836 -4.85861 -4.05917 -1.87995 -1.76113 0.684249 -0.790547 0.413059 1.37518 2.43341 0.747778 1.3677 4.07815 0.725475 3.24554 12.3913 -0.563651 -2.60193 -4.24031 0.0676718 74.2839 4.18382 0.101989 100.684 23.4493 -11.1726 -1.36831e-005 -6.54527e-007 -1.1242e-005 18.5638 38.492 -7.55425 -6.01259e-006 -7.92504e-006 -3.0104 8.0289 -4.95086 0.697417 -60.9601 -3.1916 2.12766 -115.829 28.6604 8.84346 -5.62426e-007 1.25896e-006 2.36734e-006 -22.23 27.3614 6.42678 2.03607e-006 4.61283e-007 3 -8.02934 -4.95156 -0.69778 167.33 78.2322 16.8626 180 3.05101e-005 178.734 174.007 72.8911 -178.227 -4.37229e-006 4.08516e-006 1.60101 -17.7343 65.6978 17.7706 8.13649 25.2326 -3.48773 -112.152 70.9875 -67.0366 4.54188e-006 -4.6773e-006 -0.867898 10.6889 -80.081 12.8862 2.95271e-007 -4.48079e-006 -1.91533 18.0868 66.2097 -18.1218 -8.13649 25.2327 3.48774 
